<svg xmlns="http://www.w3.org/2000/svg" viewBox="0 0 320 120" width="320" height="120">
  <rect x="0" y="0" width="20" height="80" fill="#E8913A"/>
  <polygon points="0,0 20,0 60,80 40,80" fill="#E8B544" opacity="0.85"/>
  <rect x="40" y="0" width="20" height="80" fill="#E8913A"/>
  <rect x="80" y="0" width="20" height="80" fill="#E8B544"/>
  <circle cx="90" cy="40" r="28" fill="#8FA368" opacity="0.85"/>
  <rect x="130" y="0" width="20" height="80" fill="#8FA368"/>
  <polygon points="130,0 150,0 190,80 170,80" fill="#3E6773" opacity="0.85"/>
  <rect x="170" y="0" width="20" height="80" fill="#3E6773"/>
  <polygon points="210,80 240,0 260,0 290,80 270,80 250,30 230,80" fill="#C9A988"/>
  <polygon points="240,0 260,0 290,80 270,80" fill="#3E6773" opacity="0.85"/>
  <rect x="235" y="50" width="30" height="8" fill="#C9A988"/>
  <text x="0" y="112" font-family="sans-serif" font-weight="400" font-size="20" letter-spacing="8" fill="#1A1A1A">FOTOGRAFIE</text>
</svg>
